<svg data-v-0dd9719b="" version="1.0" xmlns="http://www.w3.org/2000/svg" xmlns:xlink="http://www.w3.org/1999/xlink" width="100%" height="100%" viewBox="0 0 340.000000 250.000000" preserveAspectRatio="xMidYMid meet" color-interpolation-filters="sRGB" style="margin: auto;"> <rect data-v-0dd9719b="" x="0" y="0" width="100%" height="100%" fill="#fefcfb" fill-opacity="1" class="background"></rect> <!----> <g data-v-0dd9719b="" fill="#25263a" class="icon-text-wrapper icon-svg-group iconsvg" transform="translate(78.26997375488281,94.8931655883789)"><g fill="#25263a" class="iconsvg-imagesvg icon_container" transform="translate(0,0.10683441162109375)"><rect fill="#25263a" fill-opacity="0" stroke-width="2" x="0" y="0" width="60" height="60" class="image-rect"></rect> <svg viewBox="0 0 60 60" x="0" y="0" width="60" height="60" class="image-svg-svg bn" style="overflow: visible;"><g hollow-target="iconBnFill" mask="url(#8781f37f-2dfc-4f95-8c1e-53ee4cd36f97)"><g><svg xmlns="http://www.w3.org/2000/svg" viewBox="0 0 114.43 114.43" style="overflow: visible;" width="60" height="60" x="0" y="0" filtersec="colorsf6744662637" filter="url(#Iab9i6pE1vFNruGUAdZBL)"><g transform="scale(1, 1) skewX(0)"><path d="M104.45 0H10A10 10 0 0 0 0 10v94.43a10 10 0 0 0 10 10h94.43a10 10 0 0 0 10-10V10a10 10 0 0 0-9.98-10zm-71 10.73c-4 .14-7.93.17-11.9.25h-10.5v10.48c-.08 4-.12 7.93-.26 11.9-.22 7.93-.55 15.86-1.18 23.79-.63-7.93-1-15.86-1.19-23.79-.14-4-.17-7.93-.25-11.9V10a2 2 0 0 1 2-2h11.57c4 .08 7.93.11 11.9.25 7.93.22 15.86.55 23.79 1.19-8.13.73-16.06 1.06-23.99 1.29zM106.38 105a2 2 0 0 1-.89 1.19 2 2 0 0 1-.72.27 2.19 2.19 0 0 1-.33 0H92.99c-3.91-.08-7.81-.11-11.72-.25-7.82-.22-15.63-.56-23.45-1.19 7.82-.63 15.63-1 23.45-1.19 3.91-.14 7.81-.17 11.72-.25H103.42V93.21c.08-3.91.11-7.81.26-11.72.22-7.82.55-15.63 1.18-23.44.63 7.81 1 15.62 1.18 23.44.14 3.91.18 7.81.26 11.72V104.2a2.31 2.31 0 0 1 .08.8z" fill="#000000"></path></g><defs><filter id="Iab9i6pE1vFNruGUAdZBL"><feColorMatrix type="matrix" values="0 0 0 0 0.14453125  0 0 0 0 0.1484375  0 0 0 0 0.2265625  0 0 0 1 0"></feColorMatrix></filter></defs></svg></g> <g filter="url(#colors5817063626)"><svg xmlns="http://www.w3.org/2000/svg" xmlns:xlink="http://www.w3.org/1999/xlink" viewBox="0 -0.003997802734375 64.87000274658203 50.97999954223633" width="39.6" height="39.6" x="10.2" y="10.2" class="image-svg-letter"><path transform="translate(-3.6000000000000005 50.976000000000006)" d="M3.60-50.98L19.58-50.98L19.58 0L3.60 0L3.60-50.98ZM58.75-26.14Q63.36-25.06 65.92-21.71Q68.47-18.36 68.47-13.97L68.47-13.97Q68.47-7.27 64.04-3.64Q59.62 0 51.34 0L51.34 0L24.62 0L24.62-50.98L50.62-50.98Q58.39-50.98 62.86-47.59Q67.32-44.21 67.32-37.73L67.32-37.73Q67.32-33.26 64.98-30.20Q62.64-27.14 58.75-26.14L58.75-26.14ZM40.61-38.30L40.61-31.10L46.80-31.10Q48.96-31.10 50.00-31.97Q51.05-32.83 51.05-34.63L51.05-34.63Q51.05-36.50 50.00-37.40Q48.96-38.30 46.80-38.30L46.80-38.30L40.61-38.30ZM47.88-12.82Q50.04-12.82 51.08-13.64Q52.13-14.47 52.13-16.34L52.13-16.34Q52.13-20.02 47.88-20.02L47.88-20.02L40.61-20.02L40.61-12.82L47.88-12.82Z"></path></svg></g></g><mask id="8781f37f-2dfc-4f95-8c1e-53ee4cd36f97"><g fill="white"><svg xmlns="http://www.w3.org/2000/svg" viewBox="0 0 114.43 114.43" style="overflow: visible;" width="60" height="60" x="0" y="0" filtersec="colorsf6744662637"><g transform="scale(1, 1) skewX(0)"><path d="M104.45 0H10A10 10 0 0 0 0 10v94.43a10 10 0 0 0 10 10h94.43a10 10 0 0 0 10-10V10a10 10 0 0 0-9.98-10zm-71 10.73c-4 .14-7.93.17-11.9.25h-10.5v10.48c-.08 4-.12 7.93-.26 11.9-.22 7.93-.55 15.86-1.18 23.79-.63-7.93-1-15.86-1.19-23.79-.14-4-.17-7.93-.25-11.9V10a2 2 0 0 1 2-2h11.57c4 .08 7.93.11 11.9.25 7.93.22 15.86.55 23.79 1.19-8.13.73-16.06 1.06-23.99 1.29zM106.38 105a2 2 0 0 1-.89 1.19 2 2 0 0 1-.72.27 2.19 2.19 0 0 1-.33 0H92.99c-3.91-.08-7.81-.11-11.72-.25-7.82-.22-15.63-.56-23.45-1.19 7.82-.63 15.63-1 23.45-1.19 3.91-.14 7.81-.17 11.72-.25H103.42V93.21c.08-3.91.11-7.81.26-11.72.22-7.82.55-15.63 1.18-23.44.63 7.81 1 15.62 1.18 23.44.14 3.91.18 7.81.26 11.72V104.2a2.31 2.31 0 0 1 .08.8z"></path></g><defs></defs></svg></g> <g fill="black"><svg xmlns="http://www.w3.org/2000/svg" xmlns:xlink="http://www.w3.org/1999/xlink" viewBox="0 -0.003997802734375 64.87000274658203 50.97999954223633" width="39.6" height="39.6" x="10.2" y="10.2" class="image-svg-letter"><path transform="translate(-3.6000000000000005 50.976000000000006)" d="M3.60-50.98L19.58-50.98L19.58 0L3.60 0L3.60-50.98ZM58.75-26.14Q63.36-25.06 65.92-21.71Q68.47-18.36 68.47-13.97L68.47-13.97Q68.47-7.27 64.04-3.64Q59.62 0 51.34 0L51.34 0L24.62 0L24.62-50.98L50.62-50.98Q58.39-50.98 62.86-47.59Q67.32-44.21 67.32-37.73L67.32-37.73Q67.32-33.26 64.98-30.20Q62.64-27.14 58.75-26.14L58.75-26.14ZM40.61-38.30L40.61-31.10L46.80-31.10Q48.96-31.10 50.00-31.97Q51.05-32.83 51.05-34.63L51.05-34.63Q51.05-36.50 50.00-37.40Q48.96-38.30 46.80-38.30L46.80-38.30L40.61-38.30ZM47.88-12.82Q50.04-12.82 51.08-13.64Q52.13-14.47 52.13-16.34L52.13-16.34Q52.13-20.02 47.88-20.02L47.88-20.02L40.61-20.02L40.61-12.82L47.88-12.82Z"></path></svg></g></mask></svg> <defs><filter id="colors5817063626"><feColorMatrix type="matrix" values="0 0 0 0 0.7578125  0 0 0 0 0.28125  0 0 0 0 0.1328125  0 0 0 1 0" class="icon-fecolormatrix"></feColorMatrix></filter> <filter id="colorsf6744662637"><feColorMatrix type="matrix" values="0 0 0 0 0.99609375  0 0 0 0 0.99609375  0 0 0 0 0.99609375  0 0 0 1 0" class="icon-fecolormatrix"></feColorMatrix></filter> <filter id="colorsb4797952716"><feColorMatrix type="matrix" values="0 0 0 0 0  0 0 0 0 0  0 0 0 0 0  0 0 0 1 0" class="icon-fecolormatrix"></feColorMatrix></filter></defs></g> <g transform="translate(67,0)"><g data-gra="path-name" fill-rule="" class="tp-name iconsvg-namesvg"><g transform="scale(1)"><g><path d="M8.29 0L2.32 0 2.32-38.71 8.29-38.71 8.29 0ZM37.55 0L34.67 0 12.94-34.84 12.94-38.71 17.92-38.71 37.55-7.19 37.55 0ZM18.91 0L12.94 0 12.94-29.09 13.38-29.09 18.91-20.24 18.91 0ZM37.55-13L37.11-13 31.58-21.9 31.58-38.71 37.55-38.71 37.55-13ZM54.25 0.17L54.25 0.17 54.25-5.36Q55.02-5.36 55.94-5.81 56.85-6.25 57.68-7 58.51-7.74 59.06-8.76 59.61-9.79 59.61-11.06L59.61-11.06Q59.61-12.77 58.65-13.96 57.68-15.15 56.21-15.93 54.75-16.7 53.17-17.2 51.59-17.7 50.29-18.03 49-18.36 48.39-18.53L48.39-18.53Q46.67-19.13 45.1-20.35 43.52-21.57 42.55-23.53 41.59-25.49 41.59-28.15L41.59-28.15Q41.59-31.08 42.69-33.07 43.8-35.06 45.4-36.3 47-37.55 48.66-38.13 50.32-38.71 51.37-38.71L51.37-38.71 51.37-33.12Q50.88-33.01 50.16-32.68 49.44-32.35 48.8-31.71 48.17-31.08 47.72-30.22 47.28-29.36 47.28-28.2L47.28-28.2Q47.28-26.88 48-25.96 48.72-25.05 49.91-24.44 51.1-23.83 52.56-23.34 54.03-22.84 55.58-22.37 57.12-21.9 58.45-21.24L58.45-21.24Q60.28-20.46 61.88-19.22 63.48-17.97 64.51-16.12 65.53-14.27 65.53-11.5L65.53-11.5Q65.53-8.41 63.98-5.75 62.43-3.1 59.86-1.47 57.29 0.17 54.25 0.17ZM51.37-5.36L51.37 0.17Q49.05 0.17 47.2-0.77 45.35-1.71 43.99-3.15 42.64-4.59 41.89-6.08 41.14-7.58 41.14-8.74L41.14-8.74 46.56-10.62Q46.73-9.07 47.53-7.94 48.33-6.8 49.38-6.19 50.43-5.59 51.37-5.36L51.37-5.36ZM63.98-30.58L58.51-28.76Q58.29-30.19 57.54-31.11 56.79-32.02 55.91-32.52 55.02-33.01 54.25-33.12L54.25-33.12 54.25-38.71Q56.46-38.71 58.23-37.82 60-36.94 61.27-35.61 62.54-34.29 63.24-32.9 63.93-31.52 63.98-30.58L63.98-30.58ZM82.73 0L76.76 0 76.76-32.9 67.8-32.9 67.8-38.71 91.74-38.71 91.74-32.9 82.73-32.9 82.73 0ZM118.78 0L112.87 0 111.59-5.64 104.35-5.64 105.57-11.39 110.05-11.39 104.02-38.71 109.88-38.71 118.78 0ZM100.2 0L94.34 0 101.64-32.52 102.53-32.52 104.9-21.29 100.2 0Z" transform="translate(-2.319999933242798, 38.709999084472656)"></path></g> <!----> <!----> <!----> <!----> <!----> <!----> <g data-gra="path-name-1" fill="#25263a" transform="translate(0,41.87999725341797)"><g transform="scale(0.98146)"><path d="M6.66 0L5.05 0 5.05-2.5 5.97-2.5Q6.89-2.5 7.53-2.75 8.16-3 8.57-3.43 8.97-3.87 9.16-4.39 9.34-4.92 9.34-5.42L9.34-5.42Q9.34-6.45 8.68-7.22 8.03-8 6.58-8L6.58-8 5.05-8 5.05-10.47 6.58-10.47Q7.58-10.47 8.17-10.83 8.76-11.18 9.04-11.76 9.32-12.34 9.32-13.03L9.32-13.03Q9.32-13.71 8.99-14.37 8.66-15.03 7.99-15.47 7.32-15.92 6.26-15.92L6.26-15.92 5.05-15.92 5.05-18.42 6.61-18.42Q8.08-18.42 9.13-17.96 10.18-17.5 10.84-16.74 11.5-15.97 11.82-15.05 12.13-14.13 12.13-13.21L12.13-13.21Q12.13-11.95 11.63-10.89 11.13-9.84 10.32-9.24L10.32-9.24Q10.87-8.82 11.28-8.22 11.68-7.63 11.92-6.88 12.16-6.13 12.16-5.24L12.16-5.24Q12.16-3.87 11.54-2.67 10.92-1.47 9.7-0.74 8.47 0 6.66 0L6.66 0ZM3.68 0L0.87 0 0.87-18.42 3.68-18.42 3.68 0ZM20.89 0.13L20.89 0.13 20.89-2.71Q21.32-2.71 21.75-2.89 22.18-3.08 22.57-3.43 22.95-3.79 23.18-4.28 23.42-4.76 23.42-5.37L23.42-5.37 23.42-13.03Q23.42-13.53 23.25-14 23.08-14.47 22.75-14.87 22.42-15.26 21.96-15.5 21.5-15.74 20.89-15.74L20.89-15.74 20.89-18.55Q22.08-18.55 23.05-18.11 24.03-17.66 24.75-16.91 25.47-16.16 25.87-15.25 26.26-14.34 26.26-13.45L26.26-13.45 26.26-5.29Q26.26-4.05 25.82-3.05 25.37-2.05 24.62-1.34 23.87-0.63 22.89-0.25 21.92 0.13 20.89 0.13ZM19.45-2.71L19.45 0.13Q18.5 0.13 17.57-0.25 16.63-0.63 15.84-1.36 15.05-2.08 14.58-3.08 14.11-4.08 14.11-5.29L14.11-5.29 14.11-13.45Q14.11-14.37 14.5-15.28 14.89-16.18 15.62-16.92 16.34-17.66 17.32-18.11 18.29-18.55 19.47-18.55L19.47-18.55 19.47-15.74Q18.87-15.74 18.41-15.5 17.95-15.26 17.62-14.86 17.29-14.45 17.12-13.97 16.95-13.5 16.95-13.03L16.95-13.03 16.95-5.37Q16.95-4.76 17.18-4.26 17.42-3.76 17.79-3.42 18.16-3.08 18.59-2.89 19.03-2.71 19.45-2.71L19.45-2.71ZM35.16 0.13L35.16 0.13 35.16-2.71Q35.58-2.71 36.01-2.89 36.45-3.08 36.83-3.43 37.21-3.79 37.45-4.28 37.68-4.76 37.68-5.37L37.68-5.37 37.68-13.03Q37.68-13.53 37.51-14 37.34-14.47 37.01-14.87 36.68-15.26 36.22-15.5 35.76-15.74 35.16-15.74L35.16-15.74 35.16-18.55Q36.34-18.55 37.32-18.11 38.29-17.66 39.01-16.91 39.74-16.16 40.13-15.25 40.53-14.34 40.53-13.45L40.53-13.45 40.53-5.29Q40.53-4.05 40.08-3.05 39.63-2.05 38.88-1.34 38.13-0.63 37.16-0.25 36.18 0.13 35.16 0.13ZM33.71-2.71L33.71 0.13Q32.76 0.13 31.83-0.25 30.89-0.63 30.11-1.36 29.32-2.08 28.84-3.08 28.37-4.08 28.37-5.29L28.37-5.29 28.37-13.45Q28.37-14.37 28.76-15.28 29.16-16.18 29.88-16.92 30.61-17.66 31.58-18.11 32.55-18.55 33.74-18.55L33.74-18.55 33.74-15.74Q33.13-15.74 32.67-15.5 32.21-15.26 31.88-14.86 31.55-14.45 31.38-13.97 31.21-13.5 31.21-13.03L31.21-13.03 31.21-5.37Q31.21-4.76 31.45-4.26 31.68-3.76 32.05-3.42 32.42-3.08 32.86-2.89 33.29-2.71 33.71-2.71L33.71-2.71ZM54 0L51.13 0 46.61-8.97 51.03-18.42 53.89-18.42 49.5-8.97 54 0ZM45.5 0L42.66 0 42.66-18.42 45.5-18.42 45.5 0ZM62.29 0.13L62.29 0.13 62.29-2.71Q62.71-2.71 63.14-2.89 63.58-3.08 63.96-3.43 64.34-3.79 64.58-4.28 64.82-4.76 64.82-5.37L64.82-5.37 64.82-13.03Q64.82-13.53 64.64-14 64.47-14.47 64.14-14.87 63.82-15.26 63.36-15.5 62.89-15.74 62.29-15.74L62.29-15.74 62.29-18.55Q63.47-18.55 64.45-18.11 65.42-17.66 66.14-16.91 66.87-16.16 67.26-15.25 67.66-14.34 67.66-13.45L67.66-13.45 67.66-5.29Q67.66-4.05 67.21-3.05 66.76-2.05 66.01-1.34 65.26-0.63 64.29-0.25 63.32 0.13 62.29 0.13ZM60.84-2.71L60.84 0.13Q59.89 0.13 58.96-0.25 58.03-0.63 57.24-1.36 56.45-2.08 55.97-3.08 55.5-4.08 55.5-5.29L55.5-5.29 55.5-13.45Q55.5-14.37 55.89-15.28 56.29-16.18 57.01-16.92 57.74-17.66 58.71-18.11 59.68-18.55 60.87-18.55L60.87-18.55 60.87-15.74Q60.26-15.74 59.8-15.5 59.34-15.26 59.01-14.86 58.68-14.45 58.51-13.97 58.34-13.5 58.34-13.03L58.34-13.03 58.34-5.37Q58.34-4.76 58.58-4.26 58.82-3.76 59.18-3.42 59.55-3.08 59.99-2.89 60.42-2.71 60.84-2.71L60.84-2.71ZM79.68 0L69.79 0 69.79-18.42 72.63-18.42 72.63-2.79 79.68-2.79 79.68 0ZM87.97 0.13L87.97 0.13 87.97-2.71Q88.39-2.71 88.83-2.89 89.26-3.08 89.64-3.43 90.03-3.79 90.26-4.28 90.5-4.76 90.5-5.37L90.5-5.37 90.5-13.03Q90.5-13.53 90.33-14 90.16-14.47 89.83-14.87 89.5-15.26 89.04-15.5 88.58-15.74 87.97-15.74L87.97-15.74 87.97-18.55Q89.16-18.55 90.13-18.11 91.11-17.66 91.83-16.91 92.55-16.16 92.95-15.25 93.34-14.34 93.34-13.45L93.34-13.45 93.34-5.29Q93.34-4.05 92.89-3.05 92.45-2.05 91.7-1.34 90.95-0.63 89.97-0.25 89 0.13 87.97 0.13ZM86.53-2.71L86.53 0.13Q85.58 0.13 84.64-0.25 83.71-0.63 82.92-1.36 82.13-2.08 81.66-3.08 81.18-4.08 81.18-5.29L81.18-5.29 81.18-13.45Q81.18-14.37 81.58-15.28 81.97-16.18 82.7-16.92 83.42-17.66 84.39-18.11 85.37-18.55 86.55-18.55L86.55-18.55 86.55-15.74Q85.95-15.74 85.49-15.5 85.03-15.26 84.7-14.86 84.37-14.45 84.2-13.97 84.03-13.5 84.03-13.03L84.03-13.03 84.03-5.37Q84.03-4.76 84.26-4.26 84.5-3.76 84.87-3.42 85.24-3.08 85.67-2.89 86.11-2.71 86.53-2.71L86.53-2.71ZM100.61-2.68L100.61 0.13Q100 0.13 99.13-0.14 98.26-0.42 97.41-1.04 96.55-1.66 95.99-2.64 95.42-3.63 95.42-5.05L95.42-5.05 95.42-13.79Q95.47-14.42 95.79-15.24 96.11-16.05 96.74-16.82 97.37-17.58 98.33-18.07 99.29-18.55 100.61-18.55L100.61-18.55 100.61-15.74Q99.84-15.74 99.32-15.36 98.79-14.97 98.53-14.43 98.26-13.89 98.26-13.37L98.26-13.37 98.26-5.05Q98.26-4.37 98.57-3.92 98.87-3.47 99.28-3.2 99.68-2.92 100.07-2.8 100.45-2.68 100.61-2.68L100.61-2.68ZM101.95 0.13L101.95 0.13 101.95-2.68Q102.16-2.68 102.5-2.86 102.84-3.03 103.2-3.33 103.55-3.63 103.78-4.05 104-4.47 104-5L104-5 104-6.66 101.95-6.66 101.95-9.29 106.87-9.29 106.87-4.63Q106.87-3.84 106.42-3 105.97-2.16 105.24-1.46 104.5-0.76 103.64-0.32 102.79 0.13 101.95 0.13ZM106.87-13.58L104.08-12.55 104.08-13.39Q104.05-14 103.83-14.45 103.61-14.89 103.26-15.17 102.92-15.45 102.57-15.59 102.21-15.74 101.95-15.74L101.95-15.74 101.95-18.55Q103.21-18.55 104.33-17.84 105.45-17.13 106.16-15.99 106.87-14.84 106.87-13.58L106.87-13.58ZM115.11 0L112.18 0 112.18-6.63 108.29-18.42 111.24-18.42 115.11-6.66 115.11 0ZM116.05-8.53L115.87-8.53 114.55-13.05 116.61-18.42 119.53-18.42 116.05-8.53Z" transform="translate(-0.8700000047683716, 18.549999237060547)"></path></g></g></g></g> <!----></g></g><defs v-gra="od"></defs></svg>